<svg xmlns="http://www.w3.org/2000/svg" xmlns:xlink="http://www.w3.org/1999/xlink" version="1.1" width="1685px" height="1302px" viewBox="-0.5 -0.5 1685 1302"><defs><clipPath id="mx-clip-4-31-192-26-0"><rect x="4" y="31" width="192" height="26"/></clipPath><clipPath id="mx-clip-4-57-192-26-0"><rect x="4" y="57" width="192" height="26"/></clipPath><clipPath id="mx-clip-4-83-192-26-0"><rect x="4" y="83" width="192" height="26"/></clipPath><clipPath id="mx-clip-4-117-192-26-0"><rect x="4" y="117" width="192" height="26"/></clipPath><clipPath id="mx-clip-4-143-192-26-0"><rect x="4" y="143" width="192" height="26"/></clipPath><clipPath id="mx-clip-4-169-192-26-0"><rect x="4" y="169" width="192" height="26"/></clipPath><clipPath id="mx-clip-4-195-192-26-0"><rect x="4" y="195" width="192" height="26"/></clipPath><clipPath id="mx-clip-4-221-192-26-0"><rect x="4" y="221" width="192" height="26"/></clipPath><clipPath id="mx-clip-292-131-152-26-0"><rect x="292" y="131" width="152" height="26"/></clipPath><clipPath id="mx-clip-292-157-152-26-0"><rect x="292" y="157" width="152" height="26"/></clipPath><clipPath id="mx-clip-292-183-152-26-0"><rect x="292" y="183" width="152" height="26"/></clipPath><clipPath id="mx-clip-292-209-152-26-0"><rect x="292" y="209" width="152" height="26"/></clipPath><clipPath id="mx-clip-292-243-152-26-0"><rect x="292" y="243" width="152" height="26"/></clipPath><clipPath id="mx-clip-292-269-152-26-0"><rect x="292" y="269" width="152" height="26"/></clipPath><clipPath id="mx-clip-292-295-152-26-0"><rect x="292" y="295" width="152" height="26"/></clipPath><clipPath id="mx-clip-292-321-152-26-0"><rect x="292" y="321" width="152" height="26"/></clipPath><clipPath id="mx-clip-292-347-152-26-0"><rect x="292" y="347" width="152" height="26"/></clipPath><clipPath id="mx-clip-292-373-152-26-0"><rect x="292" y="373" width="152" height="26"/></clipPath><clipPath id="mx-clip-574-261-152-26-0"><rect x="574" y="261" width="152" height="26"/></clipPath><clipPath id="mx-clip-304-461-192-26-0"><rect x="304" y="461" width="192" height="26"/></clipPath><clipPath id="mx-clip-304-487-192-26-0"><rect x="304" y="487" width="192" height="26"/></clipPath><clipPath id="mx-clip-304-513-192-26-0"><rect x="304" y="513" width="192" height="26"/></clipPath><clipPath id="mx-clip-304-539-192-26-0"><rect x="304" y="539" width="192" height="26"/></clipPath><clipPath id="mx-clip-304-565-192-26-0"><rect x="304" y="565" width="192" height="26"/></clipPath><clipPath id="mx-clip-704-475-152-26-0"><rect x="704" y="475" width="152" height="26"/></clipPath><clipPath id="mx-clip-924-291-152-26-0"><rect x="924" y="291" width="152" height="26"/></clipPath><clipPath id="mx-clip-584-711-152-26-0"><rect x="584" y="711" width="152" height="26"/></clipPath><clipPath id="mx-clip-584-737-152-26-0"><rect x="584" y="737" width="152" height="26"/></clipPath><clipPath id="mx-clip-584-763-152-26-0"><rect x="584" y="763" width="152" height="26"/></clipPath><clipPath id="mx-clip-584-789-152-26-0"><rect x="584" y="789" width="152" height="26"/></clipPath><clipPath id="mx-clip-584-815-152-26-0"><rect x="584" y="815" width="152" height="26"/></clipPath><clipPath id="mx-clip-584-841-152-26-0"><rect x="584" y="841" width="152" height="26"/></clipPath><clipPath id="mx-clip-874-465-152-26-0"><rect x="874" y="465" width="152" height="26"/></clipPath><clipPath id="mx-clip-874-491-152-26-0"><rect x="874" y="491" width="152" height="26"/></clipPath><clipPath id="mx-clip-532-475-152-26-0"><rect x="532" y="475" width="152" height="26"/></clipPath><clipPath id="mx-clip-866-761-152-26-0"><rect x="866" y="761" width="152" height="26"/></clipPath><clipPath id="mx-clip-830-853-225-26-0"><rect x="830" y="853" width="225" height="26"/></clipPath><clipPath id="mx-clip-830-879-225-26-0"><rect x="830" y="879" width="225" height="26"/></clipPath><clipPath id="mx-clip-830-905-225-26-0"><rect x="830" y="905" width="225" height="26"/></clipPath><clipPath id="mx-clip-830-931-225-26-0"><rect x="830" y="931" width="225" height="26"/></clipPath><clipPath id="mx-clip-830-957-225-26-0"><rect x="830" y="957" width="225" height="26"/></clipPath><clipPath id="mx-clip-1195-931-152-26-0"><rect x="1195" y="931" width="152" height="26"/></clipPath><clipPath id="mx-clip-1091-1021-182-26-0"><rect x="1091" y="1021" width="182" height="26"/></clipPath><clipPath id="mx-clip-1091-1047-182-26-0"><rect x="1091" y="1047" width="182" height="26"/></clipPath><clipPath id="mx-clip-1294-1021-182-26-0"><rect x="1294" y="1021" width="182" height="26"/></clipPath><clipPath id="mx-clip-973-1251-152-26-0"><rect x="973" y="1251" width="152" height="26"/></clipPath><clipPath id="mx-clip-973-1277-152-26-0"><rect x="973" y="1277" width="152" height="26"/></clipPath><clipPath id="mx-clip-1044-791-296-26-0"><rect x="1044" y="791" width="296" height="26"/></clipPath><clipPath id="mx-clip-1438-821-242-26-0"><rect x="1438" y="821" width="242" height="26"/></clipPath></defs><g><path d="M 0 26 L 0 0 L 200 0 L 200 26" fill="rgb(255, 255, 255)" stroke="rgb(0, 0, 0)" stroke-miterlimit="10" pointer-events="all"/><path d="M 0 26 L 0 242 L 200 242 L 200 26" fill="none" stroke="rgb(0, 0, 0)" stroke-miterlimit="10" pointer-events="none"/><path d="M 0 26 L 200 26" fill="none" stroke="rgb(0, 0, 0)" stroke-miterlimit="10" pointer-events="none"/><g fill="rgb(0, 0, 0)" font-family="Helvetica" font-style="italic" text-anchor="middle" font-size="12px"><text x="99.5" y="17.5">ITResourceOrchestrationType</text></g><rect x="0" y="26" width="200" height="26" fill="none" stroke="none" pointer-events="all"/><g fill="rgb(0, 0, 0)" font-family="Helvetica" clip-path="url(#mx-clip-4-31-192-26-0)" font-size="12px"><text x="5.5" y="43.5">Id</text></g><rect x="0" y="52" width="200" height="26" fill="none" stroke="none" pointer-events="all"/><g fill="rgb(0, 0, 0)" font-family="Helvetica" clip-path="url(#mx-clip-4-57-192-26-0)" font-size="12px"><text x="5.5" y="69.5">tenantId</text></g><rect x="0" y="78" width="200" height="26" fill="none" stroke="none" pointer-events="all"/><g fill="rgb(0, 0, 0)" font-family="Helvetica" clip-path="url(#mx-clip-4-83-192-26-0)" font-size="12px"><text x="5.5" y="95.5">sliceId</text></g><path d="M 0 108 L 200 108" fill="none" stroke="rgb(0, 0, 0)" stroke-miterlimit="10" pointer-events="all"/><rect x="0" y="112" width="200" height="26" fill="none" stroke="none" pointer-events="all"/><g fill="rgb(0, 0, 0)" font-family="Helvetica" clip-path="url(#mx-clip-4-117-192-26-0)" font-size="12px"><text x="5.5" y="129.5">ITResource</text></g><rect x="0" y="138" width="200" height="26" fill="none" stroke="none" pointer-events="all"/><g fill="rgb(0, 0, 0)" font-family="Helvetica" clip-path="url(#mx-clip-4-143-192-26-0)" font-size="12px"><text x="5.5" y="155.5">priority</text></g><rect x="0" y="164" width="200" height="26" fill="none" stroke="none" pointer-events="all"/><g fill="rgb(0, 0, 0)" font-family="Helvetica" clip-path="url(#mx-clip-4-169-192-26-0)" font-size="12px"><text x="5.5" y="181.5">dependencies</text></g><rect x="0" y="190" width="200" height="26" fill="none" stroke="none" pointer-events="all"/><g fill="rgb(0, 0, 0)" font-family="Helvetica" clip-path="url(#mx-clip-4-195-192-26-0)" font-size="12px"><text x="5.5" y="207.5">orchestrationRequirements</text></g><rect x="0" y="216" width="200" height="26" fill="none" stroke="none" pointer-events="all"/><g fill="rgb(0, 0, 0)" font-family="Helvetica" clip-path="url(#mx-clip-4-221-192-26-0)" font-size="12px"><text x="5.5" y="233.5">enforcementRequirements</text></g><path d="M 288 126 L 288 100 L 448 100 L 448 126" fill="rgb(255, 255, 255)" stroke="rgb(0, 0, 0)" stroke-miterlimit="10" pointer-events="all"/><path d="M 288 126 L 288 394 L 448 394 L 448 126" fill="none" stroke="rgb(0, 0, 0)" stroke-miterlimit="10" pointer-events="none"/><path d="M 288 126 L 448 126" fill="none" stroke="rgb(0, 0, 0)" stroke-miterlimit="10" pointer-events="none"/><g fill="rgb(0, 0, 0)" font-family="Helvetica" text-anchor="middle" font-size="12px"><text x="367.5" y="117.5">ITResourceType</text></g><rect x="288" y="126" width="160" height="26" fill="none" stroke="none" pointer-events="all"/><g fill="rgb(0, 0, 0)" font-family="Helvetica" clip-path="url(#mx-clip-292-131-152-26-0)" font-size="12px"><text x="293.5" y="143.5">id</text></g><rect x="288" y="152" width="160" height="26" fill="none" stroke="none" pointer-events="all"/><g fill="rgb(0, 0, 0)" font-family="Helvetica" clip-path="url(#mx-clip-292-157-152-26-0)" font-size="12px"><text x="293.5" y="169.5">orchestrationID</text></g><rect x="288" y="178" width="160" height="26" fill="none" stroke="none" pointer-events="all"/><g fill="rgb(0, 0, 0)" font-family="Helvetica" clip-path="url(#mx-clip-292-183-152-26-0)" font-size="12px"><text x="293.5" y="195.5">tenantID</text></g><rect x="288" y="204" width="160" height="26" fill="none" stroke="none" pointer-events="all"/><g fill="rgb(0, 0, 0)" font-family="Helvetica" clip-path="url(#mx-clip-292-209-152-26-0)" font-size="12px"><text x="293.5" y="221.5">sliceID</text></g><path d="M 288 234 L 448 234" fill="none" stroke="rgb(0, 0, 0)" stroke-miterlimit="10" pointer-events="all"/><rect x="288" y="238" width="160" height="26" fill="none" stroke="none" pointer-events="all"/><g fill="rgb(0, 0, 0)" font-family="Helvetica" clip-path="url(#mx-clip-292-243-152-26-0)" font-size="12px"><text x="293.5" y="255.5">configuration</text></g><rect x="288" y="264" width="160" height="26" fill="none" stroke="none" pointer-events="all"/><g fill="rgb(0, 0, 0)" font-family="Helvetica" clip-path="url(#mx-clip-292-269-152-26-0)" font-size="12px"><text x="293.5" y="281.5">priority</text></g><rect x="288" y="290" width="160" height="26" fill="none" stroke="none" pointer-events="all"/><g fill="rgb(0, 0, 0)" font-family="Helvetica" clip-path="url(#mx-clip-292-295-152-26-0)" font-size="12px"><text x="293.5" y="307.5">dependencies</text></g><rect x="288" y="316" width="160" height="26" fill="none" stroke="none" pointer-events="all"/><g fill="rgb(0, 0, 0)" font-family="Helvetica" clip-path="url(#mx-clip-292-321-152-26-0)" font-size="12px"><text x="293.5" y="333.5">enablerCandidates</text></g><rect x="288" y="342" width="160" height="26" fill="none" stroke="none" pointer-events="all"/><g fill="rgb(0, 0, 0)" font-family="Helvetica" clip-path="url(#mx-clip-292-347-152-26-0)" font-size="12px"><text x="293.5" y="359.5">orchestrationRequirements</text></g><rect x="288" y="368" width="160" height="26" fill="none" stroke="none" pointer-events="all"/><g fill="rgb(0, 0, 0)" font-family="Helvetica" clip-path="url(#mx-clip-292-373-152-26-0)" font-size="12px"><text x="293.5" y="385.5">enforcementRequirements</text></g><path d="M 200 125 L 285.76 125.28" fill="none" stroke="rgb(0, 0, 0)" stroke-miterlimit="10" pointer-events="stroke"/><path d="M 279.87 128.76 L 286.88 125.28 L 279.89 121.76" fill="none" stroke="rgb(0, 0, 0)" stroke-miterlimit="10" pointer-events="all"/><g fill="rgb(0, 0, 0)" font-family="Helvetica" font-size="12px"><text x="261.5" y="116.07">0..*</text></g><path d="M 448 246.8 L 568.24 247" fill="none" stroke="rgb(0, 0, 0)" stroke-miterlimit="10" pointer-events="stroke"/><path d="M 562.36 250.49 L 569.36 247 L 562.37 243.49" fill="none" stroke="rgb(0, 0, 0)" stroke-miterlimit="10" pointer-events="all"/><g fill="rgb(0, 0, 0)" font-family="Helvetica" text-anchor="end" font-size="12px"><text x="562.55" y="236.89">1</text></g><path d="M 570 256 L 570 230 L 730 230 L 730 256" fill="rgb(255, 255, 255)" stroke="rgb(0, 0, 0)" stroke-miterlimit="10" pointer-events="all"/><path d="M 570 256 L 570 282 L 730 282 L 730 256" fill="none" stroke="rgb(0, 0, 0)" stroke-miterlimit="10" pointer-events="none"/><path d="M 570 256 L 730 256" fill="none" stroke="rgb(0, 0, 0)" stroke-miterlimit="10" pointer-events="none"/><g fill="rgb(0, 0, 0)" font-family="Helvetica" text-anchor="middle" font-size="12px"><text x="649.5" y="247.5">Configuration</text></g><path d="M 730 269 L 825 269 L 913.63 269" fill="none" stroke="rgb(0, 0, 0)" stroke-miterlimit="10" pointer-events="stroke"/><path d="M 918.88 269 L 911.88 272.5 L 913.63 269 L 911.88 265.5 Z" fill="rgb(0, 0, 0)" stroke="rgb(0, 0, 0)" stroke-miterlimit="10" pointer-events="all"/><rect x="570" y="256" width="160" height="26" fill="none" stroke="none" pointer-events="all"/><g fill="rgb(0, 0, 0)" font-family="Helvetica" clip-path="url(#mx-clip-574-261-152-26-0)" font-size="12px"><text x="575.5" y="273.5">capability</text></g><path d="M 300 456 L 300 430 L 500 430 L 500 456" fill="rgb(255, 255, 255)" stroke="rgb(0, 0, 0)" stroke-miterlimit="10" pointer-events="all"/><path d="M 300 456 L 300 590 L 500 590 L 500 456" fill="none" stroke="rgb(0, 0, 0)" stroke-miterlimit="10" pointer-events="none"/><path d="M 300 456 L 500 456" fill="none" stroke="rgb(0, 0, 0)" stroke-miterlimit="10" pointer-events="none"/><g fill="rgb(0, 0, 0)" font-family="Helvetica" text-anchor="middle" font-size="12px"><text x="399.5" y="447.5">RuleSetConfiguration</text></g><rect x="300" y="456" width="200" height="26" fill="none" stroke="none" pointer-events="all"/><g fill="rgb(0, 0, 0)" font-family="Helvetica" clip-path="url(#mx-clip-304-461-192-26-0)" font-size="12px"><text x="305.5" y="473.5">defaultAction</text></g><rect x="300" y="482" width="200" height="26" fill="none" stroke="none" pointer-events="all"/><g fill="rgb(0, 0, 0)" font-family="Helvetica" clip-path="url(#mx-clip-304-487-192-26-0)" font-size="12px"><text x="305.5" y="499.5">NetworkSlicingConditionParameter</text></g><rect x="300" y="508" width="200" height="26" fill="none" stroke="none" pointer-events="all"/><g fill="rgb(0, 0, 0)" font-family="Helvetica" clip-path="url(#mx-clip-304-513-192-26-0)" font-size="12px"><text x="305.5" y="525.5">resolutionStrategy</text></g><rect x="300" y="534" width="200" height="26" fill="none" stroke="none" pointer-events="all"/><g fill="rgb(0, 0, 0)" font-family="Helvetica" clip-path="url(#mx-clip-304-539-192-26-0)" font-size="12px"><text x="305.5" y="551.5">configurationRule</text></g><rect x="300" y="560" width="200" height="26" fill="none" stroke="none" pointer-events="all"/><g fill="rgb(0, 0, 0)" font-family="Helvetica" clip-path="url(#mx-clip-304-565-192-26-0)" font-size="12px"><text x="305.5" y="577.5">Name</text></g><path d="M 466 427.12 L 466 360 L 660 360 L 660 294.12" fill="none" stroke="rgb(0, 0, 0)" stroke-miterlimit="10" pointer-events="stroke"/><path d="M 660 283.12 L 665.5 294.12 L 654.5 294.12 Z" fill="none" stroke="rgb(0, 0, 0)" stroke-miterlimit="10" pointer-events="all"/><path d="M 700 470 L 700 430 L 860 430 L 860 470" fill="#d5e8d4" stroke="#82b366" stroke-miterlimit="10" pointer-events="all"/><path d="M 700 470 L 700 496 L 860 496 L 860 470" fill="none" stroke="#82b366" stroke-miterlimit="10" pointer-events="none"/><path d="M 700 470 L 860 470" fill="none" stroke="#82b366" stroke-miterlimit="10" pointer-events="none"/><g fill="rgb(0, 0, 0)" font-family="Helvetica" text-anchor="middle" font-size="12px"><text x="779.5" y="447.5">InterVClusterConfiguration</text><text x="779.5" y="461.5">(REQUEST Intents)</text></g><rect x="700" y="470" width="160" height="26" fill="none" stroke="none" pointer-events="all"/><g fill="rgb(0, 0, 0)" font-family="Helvetica" clip-path="url(#mx-clip-704-475-152-26-0)" font-size="12px"><text x="705.5" y="487.5">configurationRule</text></g><path d="M 750 430 L 750 360 L 660 360 L 660 294.12" fill="none" stroke="rgb(0, 0, 0)" stroke-miterlimit="10" pointer-events="stroke"/><path d="M 660 283.12 L 665.5 294.12 L 654.5 294.12 Z" fill="none" stroke="rgb(0, 0, 0)" stroke-miterlimit="10" pointer-events="all"/><path d="M 920 286 L 920 260 L 1080 260 L 1080 286" fill="rgb(255, 255, 255)" stroke="rgb(0, 0, 0)" stroke-miterlimit="10" pointer-events="all"/><path d="M 920 286 L 920 312 L 1080 312 L 1080 286" fill="none" stroke="rgb(0, 0, 0)" stroke-miterlimit="10" pointer-events="none"/><path d="M 920 286 L 1080 286" fill="none" stroke="rgb(0, 0, 0)" stroke-miterlimit="10" pointer-events="none"/><g fill="rgb(0, 0, 0)" font-family="Helvetica" text-anchor="middle" font-size="12px"><text x="999.5" y="277.5">Capability</text></g><rect x="920" y="286" width="160" height="26" fill="none" stroke="none" pointer-events="all"/><g fill="rgb(0, 0, 0)" font-family="Helvetica" clip-path="url(#mx-clip-924-291-152-26-0)" font-size="12px"><text x="925.5" y="303.5">CapabilityType</text></g><g fill="rgb(0, 0, 0)" font-family="Helvetica" font-size="12px"><text x="881.5" y="265.07">0..*</text></g><path d="M 905 376 L 905 350 L 1095 350 L 1095 376" fill="#d5e8d4" stroke="#82b366" stroke-miterlimit="10" pointer-events="all"/><path d="M 905 376 L 905 390 L 1095 390 L 1095 376" fill="none" stroke="#82b366" stroke-miterlimit="10" pointer-events="none"/><path d="M 905 376 L 1095 376" fill="none" stroke="#82b366" stroke-miterlimit="10" pointer-events="none"/><g fill="rgb(0, 0, 0)" font-family="Helvetica" text-anchor="middle" font-size="12px"><text x="999.5" y="367.5">KubernetesNetworkFIltering</text></g><path d="M 1000 350 L 1000 331 L 1000 324.12" fill="none" stroke="rgb(0, 0, 0)" stroke-miterlimit="10" pointer-events="stroke"/><path d="M 1000 313.12 L 1005.5 324.12 L 994.5 324.12 Z" fill="none" stroke="rgb(0, 0, 0)" stroke-miterlimit="10" pointer-events="all"/><path d="M 500 547 L 540.03 547 L 540.03 598.03 L 689.29 598.03 L 689.28 673.72" fill="none" stroke="rgb(0, 0, 0)" stroke-miterlimit="10" pointer-events="stroke"/><path d="M 689.28 678.97 L 685.78 671.97 L 689.28 673.72 L 692.78 671.97 Z" fill="rgb(0, 0, 0)" stroke="rgb(0, 0, 0)" stroke-miterlimit="10" pointer-events="all"/><path d="M 580 706 L 580 680 L 740 680 L 740 706" fill="rgb(255, 255, 255)" stroke="rgb(0, 0, 0)" stroke-miterlimit="10" pointer-events="all"/><path d="M 580 706 L 580 862 L 740 862 L 740 706" fill="none" stroke="rgb(0, 0, 0)" stroke-miterlimit="10" pointer-events="none"/><path d="M 580 706 L 740 706" fill="none" stroke="rgb(0, 0, 0)" stroke-miterlimit="10" pointer-events="none"/><g fill="rgb(0, 0, 0)" font-family="Helvetica" text-anchor="middle" font-size="12px"><text x="659.5" y="697.5">ConfigurationRule</text></g><rect x="580" y="706" width="160" height="26" fill="none" stroke="none" pointer-events="all"/><g fill="rgb(0, 0, 0)" font-family="Helvetica" clip-path="url(#mx-clip-584-711-152-26-0)" font-size="12px"><text x="585.5" y="723.5">configurationRuleAction</text></g><rect x="580" y="732" width="160" height="26" fill="none" stroke="none" pointer-events="all"/><g fill="rgb(0, 0, 0)" font-family="Helvetica" clip-path="url(#mx-clip-584-737-152-26-0)" font-size="12px"><text x="585.5" y="749.5">configurationRuleCondition</text></g><rect x="580" y="758" width="160" height="26" fill="none" stroke="none" pointer-events="all"/><g fill="rgb(0, 0, 0)" font-family="Helvetica" clip-path="url(#mx-clip-584-763-152-26-0)" font-size="12px"><text x="585.5" y="775.5">externalData</text></g><rect x="580" y="784" width="160" height="26" fill="none" stroke="none" pointer-events="all"/><g fill="rgb(0, 0, 0)" font-family="Helvetica" clip-path="url(#mx-clip-584-789-152-26-0)" font-size="12px"><text x="585.5" y="801.5">Name</text></g><rect x="580" y="810" width="160" height="26" fill="none" stroke="none" pointer-events="all"/><g fill="rgb(0, 0, 0)" font-family="Helvetica" clip-path="url(#mx-clip-584-815-152-26-0)" font-size="12px"><text x="585.5" y="827.5">isCNF</text></g><rect x="580" y="836" width="160" height="26" fill="none" stroke="none" pointer-events="all"/><g fill="rgb(0, 0, 0)" font-family="Helvetica" clip-path="url(#mx-clip-584-841-152-26-0)" font-size="12px"><text x="585.5" y="853.5">HSPL</text></g><g fill="rgb(0, 0, 0)" font-family="Helvetica" font-size="12px"><text x="661.5" y="665.07">0..*</text></g><path d="M 870 460 L 870 430 L 1030 430 L 1030 460" fill="#d5e8d4" stroke="#82b366" stroke-miterlimit="10" pointer-events="all"/><path d="M 870 460 L 870 512 L 1030 512 L 1030 460" fill="none" stroke="#82b366" stroke-miterlimit="10" pointer-events="none"/><path d="M 870 460 L 1030 460" fill="none" stroke="#82b366" stroke-miterlimit="10" pointer-events="none"/><g fill="rgb(0, 0, 0)" font-family="Helvetica" text-anchor="middle" font-size="12px"><text x="949.5" y="447.5">AUTHORIZATION Intents</text></g><rect x="870" y="460" width="160" height="26" fill="none" stroke="none" pointer-events="all"/><g fill="rgb(0, 0, 0)" font-family="Helvetica" clip-path="url(#mx-clip-874-465-152-26-0)" font-size="12px"><text x="875.5" y="477.5">ForbiddenConnectionList</text></g><rect x="870" y="486" width="160" height="26" fill="none" stroke="none" pointer-events="all"/><g fill="rgb(0, 0, 0)" font-family="Helvetica" clip-path="url(#mx-clip-874-491-152-26-0)" font-size="12px"><text x="875.5" y="503.5">MandatoryConnectionList</text></g><path d="M 893.04 431.07 L 893.04 360 L 660 360 L 660 294.12" fill="none" stroke="rgb(0, 0, 0)" stroke-miterlimit="10" pointer-events="stroke"/><path d="M 660 283.12 L 665.5 294.12 L 654.5 294.12 Z" fill="none" stroke="rgb(0, 0, 0)" stroke-miterlimit="10" pointer-events="all"/><path d="M 762.03 496 L 762.03 530.03 L 710.31 530.03 L 710.32 673.63" fill="none" stroke="rgb(0, 0, 0)" stroke-miterlimit="10" pointer-events="stroke"/><path d="M 710.32 678.88 L 706.82 671.88 L 710.32 673.63 L 713.82 671.88 Z" fill="rgb(0, 0, 0)" stroke="rgb(0, 0, 0)" stroke-miterlimit="10" pointer-events="all"/><path d="M 1030 499 L 1030.03 500.03 L 1070.03 500.03 L 1070.03 560.03 L 720.03 560.03 L 720 673.63" fill="none" stroke="rgb(0, 0, 0)" stroke-miterlimit="10" pointer-events="stroke"/><path d="M 720 678.88 L 716.5 671.88 L 720 673.63 L 723.5 671.88 Z" fill="rgb(0, 0, 0)" stroke="rgb(0, 0, 0)" stroke-miterlimit="10" pointer-events="all"/><path d="M 528 470 L 528 430 L 688 430 L 688 470" fill="#d5e8d4" stroke="#82b366" stroke-miterlimit="10" pointer-events="all"/><path d="M 528 470 L 528 496 L 688 496 L 688 470" fill="none" stroke="#82b366" stroke-miterlimit="10" pointer-events="none"/><path d="M 528 470 L 688 470" fill="none" stroke="#82b366" stroke-miterlimit="10" pointer-events="none"/><g fill="rgb(0, 0, 0)" font-family="Helvetica" text-anchor="middle" font-size="12px"><text x="607.5" y="447.5">IntraVClusterConfiguration</text><text x="607.5" y="461.5">(PRIVATE Intents)</text></g><rect x="528" y="470" width="160" height="26" fill="none" stroke="none" pointer-events="all"/><g fill="rgb(0, 0, 0)" font-family="Helvetica" clip-path="url(#mx-clip-532-475-152-26-0)" font-size="12px"><text x="533.5" y="487.5">configurationRule</text></g><path d="M 577.28 429.47 L 577.28 360 L 660.08 360 L 660.08 294.12" fill="none" stroke="rgb(0, 0, 0)" stroke-miterlimit="10" pointer-events="stroke"/><path d="M 660.08 283.12 L 665.58 294.12 L 654.58 294.12 Z" fill="none" stroke="rgb(0, 0, 0)" stroke-miterlimit="10" pointer-events="all"/><path d="M 590.03 496 L 590.03 580.03 L 700.03 580.03 L 700 673.63" fill="none" stroke="rgb(0, 0, 0)" stroke-miterlimit="10" pointer-events="stroke"/><path d="M 700 678.88 L 696.5 671.88 L 700 673.63 L 703.5 671.88 Z" fill="rgb(0, 0, 0)" stroke="rgb(0, 0, 0)" stroke-miterlimit="10" pointer-events="all"/><path d="M 1030.6 478.67 L 1039 478.71 L 1070.03 479 L 1070.03 560.03 L 720.03 560.03 L 720 673.63" fill="none" stroke="rgb(0, 0, 0)" stroke-miterlimit="10" pointer-events="stroke"/><path d="M 720 678.88 L 716.5 671.88 L 720 673.63 L 723.5 671.88 Z" fill="rgb(0, 0, 0)" stroke="rgb(0, 0, 0)" stroke-miterlimit="10" pointer-events="all"/><path d="M 740 746.8 L 860.24 747" fill="none" stroke="rgb(0, 0, 0)" stroke-miterlimit="10" pointer-events="stroke"/><path d="M 854.36 750.49 L 861.36 747 L 854.37 743.49" fill="none" stroke="rgb(0, 0, 0)" stroke-miterlimit="10" pointer-events="all"/><g fill="rgb(0, 0, 0)" font-family="Helvetica" text-anchor="end" font-size="12px"><text x="854.55" y="736.89">1</text></g><path d="M 862 756 L 862 730 L 1022 730 L 1022 756" fill="rgb(255, 255, 255)" stroke="rgb(0, 0, 0)" stroke-miterlimit="10" pointer-events="all"/><path d="M 862 756 L 862 782 L 1022 782 L 1022 756" fill="none" stroke="rgb(0, 0, 0)" stroke-miterlimit="10" pointer-events="none"/><path d="M 862 756 L 1022 756" fill="none" stroke="rgb(0, 0, 0)" stroke-miterlimit="10" pointer-events="none"/><g fill="rgb(0, 0, 0)" font-family="Helvetica" text-anchor="middle" font-size="12px"><text x="941.5" y="747.5">ConfigurationCondition</text></g><rect x="862" y="756" width="160" height="26" fill="none" stroke="none" pointer-events="all"/><g fill="rgb(0, 0, 0)" font-family="Helvetica" clip-path="url(#mx-clip-866-761-152-26-0)" font-size="12px"><text x="867.5" y="773.5">isCNF</text></g><path d="M 825.5 848 L 825.5 822 L 1058.5 822 L 1058.5 848" fill="#d5e8d4" stroke="#82b366" stroke-miterlimit="10" pointer-events="all"/><path d="M 825.5 848 L 825.5 980 L 1058.5 980 L 1058.5 848" fill="none" stroke="#82b366" stroke-miterlimit="10" pointer-events="none"/><path d="M 825.5 848 L 1058.5 848" fill="none" stroke="#82b366" stroke-miterlimit="10" pointer-events="none"/><g fill="rgb(0, 0, 0)" font-family="Helvetica" text-anchor="middle" font-size="12px"><text x="941.5" y="839.5">KubernetesNetworkFIlteringCondition</text></g><rect x="825.5" y="848" width="233" height="26" fill="none" stroke="none" pointer-events="all"/><g fill="rgb(0, 0, 0)" font-family="Helvetica" clip-path="url(#mx-clip-830-853-225-26-0)" font-size="12px"><text x="831" y="865.5">sourceSelector</text></g><rect x="825.5" y="874" width="233" height="26" fill="none" stroke="none" pointer-events="all"/><g fill="rgb(0, 0, 0)" font-family="Helvetica" clip-path="url(#mx-clip-830-879-225-26-0)" font-size="12px"><text x="831" y="891.5">sourcePort</text></g><rect x="825.5" y="900" width="233" height="26" fill="none" stroke="none" pointer-events="all"/><g fill="rgb(0, 0, 0)" font-family="Helvetica" clip-path="url(#mx-clip-830-905-225-26-0)" font-size="12px"><text x="831" y="917.5">destinationSelector</text></g><rect x="825.5" y="926" width="233" height="26" fill="none" stroke="none" pointer-events="all"/><g fill="rgb(0, 0, 0)" font-family="Helvetica" clip-path="url(#mx-clip-830-931-225-26-0)" font-size="12px"><text x="831" y="943.5">destinationPort</text></g><rect x="825.5" y="952" width="233" height="26" fill="none" stroke="none" pointer-events="all"/><g fill="rgb(0, 0, 0)" font-family="Helvetica" clip-path="url(#mx-clip-830-957-225-26-0)" font-size="12px"><text x="831" y="969.5">protocolType</text></g><path d="M 942 822 L 942 801.86 L 942 794.12" fill="none" stroke="rgb(0, 0, 0)" stroke-miterlimit="10" pointer-events="stroke"/><path d="M 942 783.12 L 947.5 794.12 L 936.5 794.12 Z" fill="none" stroke="rgb(0, 0, 0)" stroke-miterlimit="10" pointer-events="all"/><path d="M 740 719 L 1097.76 719.57" fill="none" stroke="rgb(0, 0, 0)" stroke-miterlimit="10" pointer-events="stroke"/><path d="M 1091.88 723.06 L 1098.88 719.57 L 1091.89 716.06" fill="none" stroke="rgb(0, 0, 0)" stroke-miterlimit="10" pointer-events="all"/><g fill="rgb(0, 0, 0)" font-family="Helvetica" text-anchor="end" font-size="12px"><text x="1092.07" y="710.21">1</text></g><path d="M 1102 726 L 1102 700 L 1262 700 L 1262 726" fill="rgb(255, 255, 255)" stroke="rgb(0, 0, 0)" stroke-miterlimit="10" pointer-events="all"/><path d="M 1102 726 L 1102 740 L 1262 740 L 1262 726" fill="none" stroke="rgb(0, 0, 0)" stroke-miterlimit="10" pointer-events="none"/><path d="M 1102 726 L 1262 726" fill="none" stroke="rgb(0, 0, 0)" stroke-miterlimit="10" pointer-events="none"/><g fill="rgb(0, 0, 0)" font-family="Helvetica" text-anchor="middle" font-size="12px"><text x="1181.5" y="717.5">ConfigurationAction</text></g><path d="M 1058.5 861 L 1124.43 861 L 1124.43 913 L 1188.26 913" fill="none" stroke="rgb(0, 0, 0)" stroke-miterlimit="10" pointer-events="stroke"/><path d="M 1182.38 916.5 L 1189.38 913 L 1182.38 909.5" fill="none" stroke="rgb(0, 0, 0)" stroke-miterlimit="10" pointer-events="all"/><g fill="rgb(0, 0, 0)" font-family="Helvetica" text-anchor="end" font-size="12px"><text x="1168.57" y="905.07">1</text></g><path d="M 1190.5 926 L 1190.5 900 L 1350.5 900 L 1350.5 926" fill="#d5e8d4" stroke="#82b366" stroke-miterlimit="10" pointer-events="all"/><path d="M 1190.5 926 L 1190.5 952 L 1350.5 952 L 1350.5 926" fill="none" stroke="#82b366" stroke-miterlimit="10" pointer-events="none"/><path d="M 1190.5 926 L 1350.5 926" fill="none" stroke="#82b366" stroke-miterlimit="10" pointer-events="none"/><g fill="rgb(0, 0, 0)" font-family="Helvetica" text-anchor="middle" font-size="12px"><text x="1270" y="917.5">resourceSelector</text></g><rect x="1190.5" y="926" width="160" height="26" fill="none" stroke="none" pointer-events="all"/><g fill="rgb(0, 0, 0)" font-family="Helvetica" clip-path="url(#mx-clip-1195-931-152-26-0)" font-size="12px"><text x="1196" y="943.5">isHostCluster</text></g><path d="M 1058.5 901 L 1124.43 901 L 1124.43 913 L 1187.76 913" fill="none" stroke="rgb(0, 0, 0)" stroke-miterlimit="10" pointer-events="stroke"/><path d="M 1181.88 916.5 L 1188.88 913 L 1181.88 909.5" fill="none" stroke="rgb(0, 0, 0)" stroke-miterlimit="10" pointer-events="all"/><path d="M 1087 1016 L 1087 990 L 1277 990 L 1277 1016" fill="#d5e8d4" stroke="#82b366" stroke-miterlimit="10" pointer-events="all"/><path d="M 1087 1016 L 1087 1068 L 1277 1068 L 1277 1016" fill="none" stroke="#82b366" stroke-miterlimit="10" pointer-events="none"/><path d="M 1087 1016 L 1277 1016" fill="none" stroke="#82b366" stroke-miterlimit="10" pointer-events="none"/><g fill="rgb(0, 0, 0)" font-family="Helvetica" text-anchor="middle" font-size="12px"><text x="1181.5" y="1007.5">PodNamespaceSelector</text></g><rect x="1087" y="1016" width="190" height="26" fill="none" stroke="none" pointer-events="all"/><g fill="rgb(0, 0, 0)" font-family="Helvetica" clip-path="url(#mx-clip-1091-1021-182-26-0)" font-size="12px"><text x="1092.5" y="1033.5">pod</text></g><rect x="1087" y="1042" width="190" height="26" fill="none" stroke="none" pointer-events="all"/><g fill="rgb(0, 0, 0)" font-family="Helvetica" clip-path="url(#mx-clip-1091-1047-182-26-0)" font-size="12px"><text x="1092.5" y="1059.5">namespace</text></g><path d="M 1182 990 L 1182 971 L 1270.5 971 L 1270.5 964.12" fill="none" stroke="rgb(0, 0, 0)" stroke-miterlimit="10" pointer-events="stroke"/><path d="M 1270.5 953.12 L 1276 964.12 L 1265 964.12 Z" fill="none" stroke="rgb(0, 0, 0)" stroke-miterlimit="10" pointer-events="all"/><path d="M 1290 1016 L 1290 990 L 1480 990 L 1480 1016" fill="#d5e8d4" stroke="#82b366" stroke-miterlimit="10" pointer-events="all"/><path d="M 1290 1016 L 1290 1042 L 1480 1042 L 1480 1016" fill="none" stroke="#82b366" stroke-miterlimit="10" pointer-events="none"/><path d="M 1290 1016 L 1480 1016" fill="none" stroke="#82b366" stroke-miterlimit="10" pointer-events="none"/><g fill="rgb(0, 0, 0)" font-family="Helvetica" text-anchor="middle" font-size="12px"><text x="1384.5" y="1007.5">CIDRSelector</text></g><rect x="1290" y="1016" width="190" height="26" fill="none" stroke="none" pointer-events="all"/><g fill="rgb(0, 0, 0)" font-family="Helvetica" clip-path="url(#mx-clip-1294-1021-182-26-0)" font-size="12px"><text x="1295.5" y="1033.5">addressRange</text></g><path d="M 1351.94 990.57 L 1351.94 971.57 L 1271 971.57 L 1271 964.12" fill="none" stroke="rgb(0, 0, 0)" stroke-miterlimit="10" pointer-events="stroke"/><path d="M 1271 953.12 L 1276.5 964.12 L 1265.5 964.12 Z" fill="none" stroke="rgb(0, 0, 0)" stroke-miterlimit="10" pointer-events="all"/><path d="M 1087 1029 L 1087 1030 L 1030.64 1030 L 1030.64 1217.37" fill="none" stroke="rgb(0, 0, 0)" stroke-miterlimit="10" pointer-events="stroke"/><path d="M 1027.14 1211.49 L 1030.64 1218.49 L 1034.14 1211.49" fill="none" stroke="rgb(0, 0, 0)" stroke-miterlimit="10" pointer-events="all"/><path d="M 969.2 1246 L 969.2 1220 L 1129.2 1220 L 1129.2 1246" fill="rgb(255, 255, 255)" stroke="rgb(0, 0, 0)" stroke-miterlimit="10" pointer-events="all"/><path d="M 969.2 1246 L 969.2 1298 L 1129.2 1298 L 1129.2 1246" fill="none" stroke="rgb(0, 0, 0)" stroke-miterlimit="10" pointer-events="none"/><path d="M 969.2 1246 L 1129.2 1246" fill="none" stroke="rgb(0, 0, 0)" stroke-miterlimit="10" pointer-events="none"/><g fill="rgb(0, 0, 0)" font-family="Helvetica" text-anchor="middle" font-size="12px"><text x="1048.7" y="1237.5">KeyValue</text></g><rect x="969.2" y="1246" width="160" height="26" fill="none" stroke="none" pointer-events="all"/><g fill="rgb(0, 0, 0)" font-family="Helvetica" clip-path="url(#mx-clip-973-1251-152-26-0)" font-size="12px"><text x="974.7" y="1263.5">key</text></g><rect x="969.2" y="1272" width="160" height="26" fill="none" stroke="none" pointer-events="all"/><g fill="rgb(0, 0, 0)" font-family="Helvetica" clip-path="url(#mx-clip-973-1277-152-26-0)" font-size="12px"><text x="974.7" y="1289.5">value</text></g><path d="M 1087 1055 L 1043.51 1055 L 1043.01 1217.76" fill="none" stroke="rgb(0, 0, 0)" stroke-miterlimit="10" pointer-events="stroke"/><path d="M 1039.53 1211.87 L 1043 1218.88 L 1046.53 1211.89" fill="none" stroke="rgb(0, 0, 0)" stroke-miterlimit="10" pointer-events="all"/><g fill="rgb(0, 0, 0)" font-family="Helvetica" text-anchor="end" font-size="12px"><text x="1068.07" y="1210.16">1..*</text></g><path d="M 1040 786 L 1040 760 L 1343.5 760 L 1343.5 786" fill="#d5e8d4" stroke="#82b366" stroke-miterlimit="10" pointer-events="all"/><path d="M 1040 786 L 1040 812 L 1343.5 812 L 1343.5 786" fill="none" stroke="#82b366" stroke-miterlimit="10" pointer-events="none"/><path d="M 1040 786 L 1343.5 786" fill="none" stroke="#82b366" stroke-miterlimit="10" pointer-events="none"/><g fill="rgb(0, 0, 0)" font-family="Helvetica" text-anchor="middle" font-size="12px"><text x="1191.25" y="777.5">KubernetesNetworkFilteringAction</text></g><path d="M 1343.5 799 L 1386.77 799 L 1423.63 799" fill="none" stroke="rgb(0, 0, 0)" stroke-miterlimit="10" pointer-events="stroke"/><path d="M 1428.88 799 L 1421.88 802.5 L 1423.63 799 L 1421.88 795.5 Z" fill="rgb(0, 0, 0)" stroke="rgb(0, 0, 0)" stroke-miterlimit="10" pointer-events="all"/><rect x="1040" y="786" width="303.5" height="26" fill="none" stroke="none" pointer-events="all"/><g fill="rgb(0, 0, 0)" font-family="Helvetica" clip-path="url(#mx-clip-1044-791-296-26-0)" font-size="12px"><text x="1045.5" y="803.5">KubernetesNetworkFilteringActionType</text></g><path d="M 1191.89 760 L 1191.93 752.12" fill="none" stroke="rgb(0, 0, 0)" stroke-miterlimit="10" pointer-events="stroke"/><path d="M 1191.99 741.12 L 1197.43 752.15 L 1186.43 752.09 Z" fill="none" stroke="rgb(0, 0, 0)" stroke-miterlimit="10" pointer-events="all"/><path d="M 1434 816 L 1434 790 L 1684 790 L 1684 816" fill="#d5e8d4" stroke="#82b366" stroke-miterlimit="10" pointer-events="all"/><path d="M 1434 816 L 1434 842 L 1684 842 L 1684 816" fill="none" stroke="#82b366" stroke-miterlimit="10" pointer-events="none"/><path d="M 1434 816 L 1684 816" fill="none" stroke="#82b366" stroke-miterlimit="10" pointer-events="none"/><g fill="rgb(0, 0, 0)" font-family="Helvetica" text-anchor="middle" font-size="12px"><text x="1558.5" y="807.5">KubernetesNetworkFilteringActionType</text></g><rect x="1434" y="816" width="250" height="26" fill="none" stroke="none" pointer-events="all"/><g fill="rgb(0, 0, 0)" font-family="Helvetica" clip-path="url(#mx-clip-1438-821-242-26-0)" font-size="12px"><text x="1439.5" y="833.5">DENY/ALLOW</text></g></g></svg>